<svg version="1" xmlns="http://www.w3.org/2000/svg" width="562.667" height="562.667" viewBox="0 0 422.000000 422.000000"><path d="M151.7 29.7c-.3.5-1.5 5.1-2.8 10.3-3.1 12.7-3.4 40.7-.6 51 5.8 20.8 19.8 36.6 42.5 47.9 9.6 4.8 28.7 11.5 30.7 10.7 2.7-1 5.8-18.2 6.3-35.1.5-18.4-1.3-28.5-6.9-39.7-9.5-19-30.6-34.7-57.7-43.2-8.8-2.7-10.8-3.1-11.5-1.9z"/><path d="M234.5 105.4c1.6 12.8-5.5 51.6-9.4 51.6-2.2 0-20.2-5.2-25.9-7.4-19.9-7.9-37.8-21.2-46.9-34.8l-2.5-3.7-8.2 4.1c-43.7 21.9-73.7 62-83.3 111.3-2.7 14-2.4 41.6.5 56.2 6 29.8 19.4 55.7 39.8 77.2 27.3 28.8 61 44.8 100.9 48.1 12.6 1 31-.1 42.8-2.6 60.9-12.6 108.5-60.9 120.9-122.7 2.9-14.6 3.2-42.2.5-56.2-9.6-49.3-39-88.7-82.9-111-13-6.6-26.9-11.5-39.6-13.9l-7.3-1.4.6 5.2zm-52.1 53.3c3.2 2.4 9.2 6 13.4 8 7.2 3.6 8.1 3.8 17.2 3.8s10-.2 17.2-3.7c4.1-2.1 10.4-6 13.9-8.7 6.3-5 6.4-5 8.3-3.1 2 1.9 2 2 0 4.1-3.6 4-19.1 13.6-25.4 15.8-7.1 2.3-17.9 2.8-24.5 1-8-2.2-28.7-14.2-31.1-18-.8-1.4 2.6-5 4-4.2.6.4 3.7 2.6 7 5z"/></svg>